<svg width="42" height="34" viewBox="0 0 42 34" fill="none" xmlns="http://www.w3.org/2000/svg">
<g id="4">
<g id="Group">
<path id="Vector" d="M17.338 7.51471L20.9671 9.52795L21.0731 14.7994L16.5698 17.5014L11.9605 14.9319L11.881 9.68688L15.4572 7.5412" stroke="#4F4F4F" stroke-width="1.5" stroke-miterlimit="10"/>
<path id="Vector_2" d="M29.232 15.1968L25.6559 17.3425L21.0731 14.7995L20.9672 9.55445L25.4705 6.85248L30.0797 9.39551L30.1327 13.5809" stroke="#4F4F4F" stroke-width="1.5" stroke-miterlimit="10"/>
<path id="Vector_3" d="M17.3116 6.42862C17.0202 5.92531 16.358 5.76637 15.8282 6.05776C15.3248 6.34915 15.1659 7.01139 15.4573 7.54119C15.7487 8.0445 16.4109 8.20344 16.9407 7.91205C17.444 7.59417 17.603 6.95841 17.3116 6.42862Z" stroke="#4F4F4F" stroke-width="1.5" stroke-miterlimit="10"/>
<path id="Vector_4" d="M31.0863 14.0842C30.7949 13.5809 30.1327 13.4219 29.6029 13.7133C29.0996 14.0047 28.9406 14.667 29.232 15.1968C29.5234 15.7001 30.1856 15.859 30.7154 15.5676C31.2188 15.2498 31.3777 14.5875 31.0863 14.0842Z" stroke="#4F4F4F" stroke-width="1.5" stroke-miterlimit="10"/>
<path id="Vector_5" d="M25.6559 17.3425L25.6295 18.5346" stroke="#4F4F4F" stroke-width="1.5" stroke-miterlimit="10"/>
<path id="Vector_6" d="M26.424 18.9849C26.1591 18.5345 25.5764 18.4021 25.126 18.667C24.6757 18.9319 24.5433 19.5147 24.8082 19.965C25.0731 20.4153 25.6558 20.5478 26.1062 20.2829C26.5565 20.018 26.6889 19.4352 26.424 18.9849Z" stroke="#4F4F4F" stroke-width="1.5" stroke-miterlimit="10"/>
<path id="Vector_7" d="M11.8811 9.68691L10.6626 8.99817" stroke="#4F4F4F" stroke-width="1.5" stroke-miterlimit="10"/>
<path id="Vector_8" d="M9.89437 9.44853C10.3977 9.34257 10.7156 8.86575 10.6361 8.36244C10.5301 7.85913 10.0533 7.54125 9.55 7.62072C9.04669 7.72668 8.72881 8.2035 8.80828 8.70681C8.91424 9.21012 9.39106 9.55449 9.89437 9.44853Z" stroke="#4F4F4F" stroke-width="1.5" stroke-miterlimit="10"/>
<path id="Vector_9" d="M19.2805 12.1874L18.5239 13.6339L16.5434 14.7021L14.5628 13.6339L13.7839 12.1874V12.2097L13.8062 14.1235L16.5434 15.6367L19.2805 14.1235L19.3028 12.2097L19.2805 12.1874Z" fill="#67BA30"/>
<path id="Vector_10" d="M22.7358 12.1641L23.5146 10.7179L25.4948 9.62761L27.4751 10.7179L28.2316 12.1641L28.2538 12.1196L28.2093 10.2284L25.4948 8.69312L22.7581 10.2284L22.7136 12.1196L22.7358 12.1641Z" fill="#67BA30"/>
</g>
<path id="XMLID 1" d="M36.4592 23.6461H5.53608C4.67454 23.6461 3.99762 22.9692 3.99762 22.1077V2.53846C3.99762 1.67692 4.67454 1 5.53608 1H36.4592C37.3207 1 37.9976 1.67692 37.9976 2.53846V22.1077C37.9976 22.9692 37.3207 23.6461 36.4592 23.6461Z" stroke="#4F4F4F" stroke-width="1.5" stroke-miterlimit="10" stroke-linecap="round" stroke-linejoin="round"/>
<path id="Vector_11" d="M37.7207 23.1846L40.8284 31.3077C41.2899 32.0462 40.7361 33 39.8745 33H21.013H2.12068C1.25914 33 0.705292 32.0462 1.16683 31.3077L4.27452 23.1846" stroke="#4F4F4F" stroke-width="1.5" stroke-miterlimit="10" stroke-linecap="round" stroke-linejoin="round"/>
<path id="Vector_12" d="M13.413 30.7231H28.613" stroke="#4F4F4F" stroke-width="1.5" stroke-miterlimit="10" stroke-linecap="round" stroke-linejoin="round"/>
</g>
</svg>
