<svg width="32" height="37" viewBox="0 0 32 37" fill="none" xmlns="http://www.w3.org/2000/svg">
<g id="3">
<g id="Group 2">
<path id="Vector" d="M28.5101 17.9227C28.5101 17.9227 24.6806 21.6677 15.9236 21.6677C7.16654 21.6677 3.3371 17.9227 3.3371 17.9227" stroke="#4F4F4F" stroke-width="1.5" stroke-miterlimit="10" stroke-linecap="round" stroke-linejoin="round"/>
<path id="Vector_2" d="M2.63312 21.3017C8.03939 24.8777 10.9959 24.568 15.0225 29.4956C15.2478 29.7772 15.6138 29.9179 15.9517 29.9179C16.2896 29.9179 16.6556 29.7772 16.8809 29.4956C20.8793 24.568 23.8359 24.8777 29.2421 21.3017" stroke="#4F4F4F" stroke-width="1.5" stroke-miterlimit="10" stroke-linecap="round" stroke-linejoin="round"/>
<path id="Vector_3" d="M15.9236 29.918V36" stroke="#4F4F4F" stroke-width="1.5" stroke-miterlimit="10" stroke-linecap="round" stroke-linejoin="round"/>
</g>
<g id="Group">
<path id="Vector_4" d="M5.50523 12.8262C5.1955 13.671 4.82945 14.5439 4.37892 15.4449C3.08367 17.9509 2.32341 20.7104 2.32341 23.5543C2.29526 26.9332 3.02736 31.354 5.78681 36" stroke="#4F4F4F" stroke-width="1.5" stroke-miterlimit="10" stroke-linecap="round" stroke-linejoin="round"/>
<path id="Vector_5" d="M5.08286 1C5.08286 1 7.53258 4.80129 6.09654 10.8552" stroke="#4F4F4F" stroke-width="1.5" stroke-miterlimit="10" stroke-linecap="round" stroke-linejoin="round"/>
<path id="Vector_6" d="M10.2076 13.7836C4.80129 13.1078 1 11.4183 1 9.44728C1 8.20834 2.52051 7.08204 5.02655 6.2373" stroke="#4F4F4F" stroke-width="1.5" stroke-miterlimit="10" stroke-linecap="round" stroke-linejoin="round"/>
<path id="Vector_7" d="M11.0523 11.6999L12.7699 14.1778L10.461 16.008" stroke="#4F4F4F" stroke-width="1.5" stroke-miterlimit="10" stroke-linecap="round" stroke-linejoin="round"/>
</g>
<g id="Group_2">
<path id="Vector_8" d="M26.3419 12.8262C26.6517 13.671 27.0177 14.5439 27.4682 15.4449C28.7635 17.9509 29.5238 20.7104 29.5238 23.5543C29.5519 26.9332 28.8198 31.354 26.0604 36" stroke="#4F4F4F" stroke-width="1.5" stroke-miterlimit="10" stroke-linecap="round" stroke-linejoin="round"/>
<path id="Vector_9" d="M26.7925 1C26.7925 1 24.3428 4.80129 25.7788 10.8552" stroke="#4F4F4F" stroke-width="1.5" stroke-miterlimit="10" stroke-linecap="round" stroke-linejoin="round"/>
<path id="Vector_10" d="M21.6678 13.7836C27.074 13.0796 30.8753 11.3902 30.8753 9.44728C30.8753 8.20834 29.3548 7.08204 26.8488 6.2373" stroke="#4F4F4F" stroke-width="1.5" stroke-miterlimit="10" stroke-linecap="round" stroke-linejoin="round"/>
<path id="Vector_11" d="M20.7949 11.6999L19.0773 14.1778L21.3862 16.008" stroke="#4F4F4F" stroke-width="1.5" stroke-miterlimit="10" stroke-linecap="round" stroke-linejoin="round"/>
</g>
<path id="Vector_12" d="M15.9517 23.1601C12.601 23.1601 9.89783 22.6251 7.81416 21.9493C8.54626 22.5407 9.70073 23.1883 10.3484 23.5543C10.5173 23.6388 10.6862 23.7233 10.827 23.8077C10.8552 23.8077 10.8552 23.8077 10.8552 23.8077C12.5447 24.737 14.1778 25.9196 15.9799 28.0596C17.782 25.9477 19.4151 24.7651 21.1046 23.8077C21.1046 23.8077 21.1046 23.8077 21.1327 23.8077C21.3017 23.7233 21.4425 23.6388 21.6114 23.5543C22.2591 23.1883 23.4135 22.5407 24.1456 21.9493C22.0056 22.6251 19.3025 23.1601 15.9517 23.1601Z" fill="#67BA30"/>
</g>
</svg>
