<svg width="30" height="38" viewBox="0 0 30 38" fill="none" xmlns="http://www.w3.org/2000/svg">
<g id="1">
<g id="Group">
<path id="Vector" d="M9.24865 20.4525C7.51345 18.2598 6.56189 16.6857 5.86221 15.3082C4.88267 13.3967 4.85468 11.1198 5.75027 9.15205L8.74488 2.79907" stroke="#4F4F4F" stroke-width="1.5" stroke-miterlimit="10" stroke-linecap="round"/>
<path id="Vector_2" d="M20.7794 23.0667L28 32.1464L22.3466 36.869L15.9376 28.8575" stroke="#4F4F4F" stroke-width="1.5" stroke-miterlimit="10" stroke-linecap="round"/>
<path id="Vector_3" d="M21.2551 2.79907L24.2497 9.18016C25.1733 11.1479 25.1453 13.4248 24.1378 15.3364C23.3541 16.8262 22.0947 18.8221 20.0797 21.2958L7.65339 36.869L2 32.1464L14.8741 15.9548C19.8837 9.77048 21.1991 6.00367 21.423 3.9516C21.563 2.79907 20.8073 1.73087 19.6878 1.44977C18.7083 1.22488 17.3089 1 15.5457 1H14.4822C12.6911 1 11.2917 1.22488 10.3401 1.44977C9.22067 1.73087 8.46502 2.79907 8.60495 3.9516C8.82885 5.86312 9.72444 8.98338 13.9785 14.493" stroke="#4F4F4F" stroke-width="1.5" stroke-miterlimit="10" stroke-linecap="round"/>
<path id="Vector_4" d="M20.0797 8.11194C20.0797 8.11194 17.3649 7.66217 15.014 7.66217C12.6351 7.66217 9.94833 8.11194 9.94833 8.11194" stroke="#4F4F4F" stroke-width="1.5" stroke-miterlimit="10" stroke-linecap="round"/>
</g>
<path id="Vector_5" d="M8.88482 26.187L4.35091 31.8934L7.42949 34.4515L13.7266 26.5524C11.9354 26.7211 10.2842 26.5243 8.88482 26.187Z" fill="#67BA30"/>
</g>
</svg>
