<svg width="29" height="38" viewBox="0 0 29 38" fill="none" xmlns="http://www.w3.org/2000/svg">
<g id="2">
<g id="Group">
<path id="Vector" d="M12.7556 2.20296L12.7271 1.97501C12.6701 1.4906 13.0121 1.06319 13.4965 1.0062C13.9809 0.949214 14.4083 1.29114 14.4653 1.77555L14.4938 1.91802C17.3147 1.54759 19.2523 3.51369 18.141 6.933C16.4883 11.948 13.7814 18.5871 9.73522 18.5871C5.66055 18.5871 2.98209 11.948 1.32943 6.933C0.189662 3.51369 2.15576 1.54759 4.94819 1.91802L4.97669 1.77555C5.03368 1.29114 5.46109 0.977709 5.94549 1.0062C6.42989 1.06319 6.77182 1.4906 6.71483 1.97501L6.68634 2.20296" stroke="#4F4F4F" stroke-width="1.5" stroke-miterlimit="10" stroke-linecap="round"/>
<path id="Vector_2" d="M24.2957 25.4543C26.3415 25.4543 28 23.7958 28 21.75C28 19.7042 26.3415 18.0458 24.2957 18.0458C22.2499 18.0458 20.5915 19.7042 20.5915 21.75C20.5915 23.7958 22.2499 25.4543 24.2957 25.4543Z" stroke="#4F4F4F" stroke-width="1.5" stroke-miterlimit="10" stroke-linecap="round"/>
<path id="Vector_3" d="M9.7352 18.5586V29.2155C9.7352 31.6945 7.74061 33.689 5.26161 33.689C3.26702 33.689 1.55737 32.1219 1.67135 30.0988C1.78532 28.3036 2.95358 27.3633 4.54926 27.2209C4.54926 27.2209 6.54385 27.0214 7.68362 28.8165" stroke="#4F4F4F" stroke-width="1.5" stroke-miterlimit="10" stroke-linecap="round"/>
<path id="Vector_4" d="M10.1341 32.9197C10.1341 32.9197 13.7244 36.5955 18.4544 36.5955C21.6742 36.5955 24.2957 33.974 24.2957 30.7542V25.4543" stroke="#4F4F4F" stroke-width="1.5" stroke-miterlimit="10" stroke-linecap="round"/>
<path id="Vector_5" d="M27.0597 16.9915C26.2618 16.4786 25.293 16.1936 24.2957 16.1936C23.2699 16.1936 22.3296 16.4786 21.5318 16.9915" stroke="#4F4F4F" stroke-width="1.5" stroke-miterlimit="10" stroke-linecap="round"/>
</g>
<path id="Vector_6" d="M24.2958 21.9495C23.5264 21.9495 22.871 21.5505 22.4721 20.9807C22.3866 21.2086 22.3297 21.4651 22.3297 21.75C22.3297 22.8328 23.213 23.7446 24.3242 23.7446C25.407 23.7446 26.3188 22.8613 26.3188 21.75C26.3188 21.4651 26.2618 21.2086 26.1764 20.9807C25.7205 21.579 25.0651 21.9495 24.2958 21.9495Z" fill="#67BA30"/>
<path id="Vector_7" d="M5.71751 5.30882C6.31589 5.3658 6.85728 4.9099 6.88577 4.34001L6.97126 3.4282L4.8057 3.25723L4.72022 4.16905C4.69172 4.73893 5.11914 5.25183 5.71751 5.30882Z" fill="#67BA30"/>
<path id="Vector_8" d="M13.7244 5.30882C13.1261 5.3658 12.5847 4.9099 12.5562 4.34001L12.4707 3.4282L14.6363 3.25723L14.7217 4.16905C14.7787 4.73893 14.3228 5.25183 13.7244 5.30882Z" fill="#67BA30"/>
</g>
</svg>
