<svg width="24" height="14" viewBox="0 0 24 14" fill="none" xmlns="http://www.w3.org/2000/svg">
<g id="Icon/VK">
<path id="Vector" d="M11.6183 13.8131H13.0363C13.0363 13.8131 13.4682 13.7666 13.6842 13.534C13.8814 13.3201 13.8814 12.9201 13.8814 12.9201C13.8814 12.9201 13.8533 11.0412 14.7359 10.7622C15.6093 10.4924 16.7173 12.5853 17.9005 13.3852C18.7926 13.9898 19.4781 13.8596 19.4781 13.8596L22.6427 13.8131C22.6427 13.8131 24.2954 13.7108 23.516 12.4272C23.4502 12.3248 23.0558 11.4784 21.1684 9.72972C19.187 7.90663 19.4499 8.20428 21.8445 5.05106C23.3 3.12565 23.8822 1.95366 23.7038 1.45138C23.5347 0.977005 22.4642 1.09793 22.4642 1.09793L18.9053 1.11653C18.9053 1.11653 18.6423 1.07932 18.4452 1.20024C18.2573 1.31186 18.1353 1.5816 18.1353 1.5816C18.1353 1.5816 17.5718 3.06984 16.8206 4.33485C15.2336 7.00438 14.6045 7.1439 14.3416 6.97648C13.7406 6.58581 13.8908 5.42312 13.8908 4.59529C13.8908 2.00947 14.2852 0.930498 13.1208 0.651453C12.7358 0.558438 12.4447 0.493327 11.4587 0.484026C10.191 0.474724 9.11111 0.484025 8.50074 0.781673C8.09695 0.977005 7.78706 1.41418 7.97487 1.44208C8.20963 1.46999 8.74489 1.5816 9.0266 1.96296C9.39282 2.45594 9.37404 3.56282 9.37404 3.56282C9.37404 3.56282 9.58063 6.60441 8.88574 6.98578C8.36927 7.24622 7.71194 6.71603 6.30339 4.29764C5.58033 3.06054 5.03568 1.68392 5.03568 1.68392C5.03568 1.68392 4.93239 1.42348 4.74458 1.29326C4.51921 1.12583 4.19994 1.07002 4.19994 1.07002L0.819401 1.08862C0.819401 1.08862 0.312321 1.10723 0.124514 1.32116C-0.0445134 1.51649 0.115123 1.91646 0.115123 1.91646C0.115123 1.91646 2.76321 8.05545 5.76813 11.1529C8.50073 13.9991 11.6183 13.8131 11.6183 13.8131Z" fill="#B2B2B2"/>
</g>
</svg>
