<svg width="22" height="22" viewBox="0 0 22 22" fill="none" xmlns="http://www.w3.org/2000/svg">
<path d="M22 10.7167C22 16.6354 17.1651 21.4334 11.2 21.4334C9.30624 21.4334 7.52718 20.9494 5.97936 20.0999L0 22L1.94944 16.2502C0.966044 14.6354 0.399667 12.7414 0.399667 10.7167C0.399667 4.79796 5.23502 0 11.2 0C17.1656 0 22 4.79796 22 10.7167ZM11.2 1.70671C6.19276 1.70671 2.11982 5.7486 2.11982 10.7167C2.11982 12.6881 2.76247 14.5139 3.84951 15.9991L2.71504 19.3453L6.20449 18.2363C7.63816 19.1776 9.35562 19.7267 11.2002 19.7267C16.2067 19.7267 20.2803 15.6853 20.2803 10.7172C20.2803 5.74909 16.2069 1.70671 11.2 1.70671ZM16.6538 13.1848C16.587 13.0756 16.4108 13.0096 16.1463 12.8783C15.8813 12.747 14.5794 12.1112 14.3374 12.024C14.0947 11.9365 13.9177 11.8925 13.7414 12.1552C13.5652 12.4183 13.0577 13.0096 12.903 13.1848C12.7485 13.3606 12.5943 13.3826 12.3293 13.2511C12.0648 13.1198 11.2119 12.8421 10.2007 11.9475C9.4138 11.2513 8.88238 10.3918 8.72789 10.1286C8.57364 9.86578 8.71176 9.72376 8.844 9.59298C8.96329 9.47516 9.10898 9.2862 9.24122 9.13293C9.37396 8.97942 9.41796 8.87016 9.50571 8.69464C9.59444 8.51938 9.5502 8.36611 9.48371 8.23436C9.41771 8.10309 8.88776 6.81047 8.66727 6.28442C8.44678 5.75887 8.22653 5.84638 8.0718 5.84638C7.91756 5.84638 7.74082 5.82438 7.56433 5.82438C7.38784 5.82438 7.10087 5.89013 6.85813 6.15291C6.61564 6.41593 5.93193 7.05149 5.93193 8.34387C5.93193 9.63649 6.88013 10.8854 7.01287 11.0604C7.14511 11.2354 8.84376 13.9742 11.5351 15.026C14.2267 16.0774 14.2267 15.7266 14.7121 15.6826C15.1971 15.6388 16.278 15.0473 16.4995 14.4342C16.7195 13.8202 16.7195 13.2944 16.6538 13.1848Z" fill="#B2B2B2"/>
</svg>
