<svg width="22" height="19" viewBox="0 0 22 19" fill="none" xmlns="http://www.w3.org/2000/svg">
<g id="Icon/Telegram">
<g id="Group">
<path id="Union" d="M21.9993 1.16089L18.5643 17.8381C18.5643 17.8381 18.0818 18.9971 16.764 18.4419L11.8832 14.8371L8.75578 17.5878C8.75578 17.5878 8.51093 17.7683 8.24449 17.6572L8.84219 12.5423L8.86491 12.5594L8.8781 12.4523C8.8781 12.4523 17.6636 4.8459 18.0237 4.51972C18.3838 4.19353 18.2613 4.12413 18.2613 4.12413C18.2829 3.72854 17.6132 4.12413 17.6132 4.12413L5.96879 11.2517L5.97002 11.2556L5.96208 11.2519L1.11563 9.67648C1.11563 9.67648 0.373904 9.41969 0.301892 8.86448C0.229879 8.30926 1.14444 8.01084 1.14444 8.01084L20.4222 0.723664C20.415 0.723664 21.9993 0.0504686 21.9993 1.16089Z" fill="#B2B2B2"/>
</g>
</g>
</svg>
