<svg width="23" height="22" viewBox="0 0 23 22" fill="none" xmlns="http://www.w3.org/2000/svg">
<g id="Icon/Instagram">
<path id="Union" fill-rule="evenodd" clip-rule="evenodd" d="M11.0968 1.98145C14.0616 1.98145 14.4096 1.99454 15.5814 2.04692C16.6651 2.09493 17.251 2.27387 17.6431 2.42662C18.1629 2.62739 18.5329 2.86306 18.9206 3.24713C19.3082 3.6312 19.5505 3.99782 19.7488 4.51282C19.8985 4.90125 20.0836 5.48172 20.132 6.55537C20.1849 7.71631 20.1981 8.0611 20.1981 10.9984C20.1981 13.9356 20.1849 14.2804 20.132 15.4413C20.0836 16.515 19.903 17.0955 19.7488 17.4839C19.5461 17.9989 19.3082 18.3655 18.9206 18.7496C18.5329 19.1337 18.1629 19.3737 17.6431 19.5701C17.251 19.7185 16.6651 19.9018 15.5814 19.9498C14.4096 20.0022 14.0616 20.0153 11.0968 20.0153C8.1321 20.0153 7.78409 20.0022 6.61229 19.9498C5.5286 19.9018 4.9427 19.7228 4.55063 19.5701C4.03081 19.3693 3.66077 19.1337 3.27311 18.7496C2.88544 18.3655 2.64315 17.9989 2.44492 17.4839C2.29514 17.0955 2.11012 16.515 2.06166 15.4413C2.0088 14.2804 1.99558 13.9356 1.99558 10.9984C1.99558 8.0611 2.0088 7.71631 2.06166 6.55537C2.11012 5.48172 2.29073 4.90125 2.44492 4.51282C2.64756 3.99782 2.88544 3.6312 3.27311 3.24713C3.66077 2.86306 4.03081 2.62302 4.55063 2.42662C4.9427 2.27823 5.5286 2.09493 6.61229 2.04692C7.78409 1.99018 8.13651 1.98145 11.0968 1.98145ZM11.0968 0C8.08365 0 7.7048 0.0130933 6.51978 0.0654664C5.33917 0.11784 4.53301 0.30551 3.82817 0.576104C3.0969 0.855428 2.48016 1.23513 1.86342 1.84615C1.24669 2.45717 0.867836 3.07256 0.581494 3.79269C0.308368 4.491 0.118942 5.28969 0.0660789 6.46372C0.0132158 7.63338 0 8.00873 0 10.994C0 13.9793 0.0132158 14.3546 0.0660789 15.5286C0.118942 16.6983 0.308368 17.497 0.581494 18.1997C0.86343 18.9242 1.24669 19.5352 1.86342 20.1462C2.48016 20.7572 3.1013 21.1326 3.82817 21.4162C4.53301 21.6868 5.33917 21.8745 6.52419 21.9269C7.7092 21.9793 8.08365 21.9924 11.1012 21.9924C14.1188 21.9924 14.4933 21.9793 15.6783 21.9269C16.8589 21.8745 17.6651 21.6868 18.3743 21.4162C19.1056 21.1369 19.7223 20.7572 20.3391 20.1462C20.9558 19.5352 21.3347 18.9198 21.621 18.1997C21.8941 17.5014 22.0836 16.7027 22.1364 15.5286C22.1893 14.3546 22.2025 13.9836 22.2025 10.994C22.2025 8.00436 22.1893 7.63338 22.1364 6.45935C22.0836 5.28969 21.8941 4.491 21.621 3.78832C21.3391 3.06383 20.9558 2.45281 20.3391 1.84179C19.7223 1.23077 19.1012 0.855428 18.3743 0.57174C17.6695 0.301146 16.8633 0.113475 15.6783 0.061102C14.4889 0.0130933 14.11 0 11.0968 0ZM11.0974 5.35033C7.95208 5.35033 5.39703 7.87733 5.39703 10.9979C5.39703 14.1185 7.94767 16.6455 11.0974 16.6455C14.2472 16.6455 16.7978 14.1185 16.7978 10.9979C16.7978 7.87733 14.2472 5.35033 11.0974 5.35033ZM11.0974 14.6597C9.05339 14.6597 7.39702 13.0186 7.39702 10.9935C7.39702 8.96844 9.05339 7.32741 11.0974 7.32741C13.1415 7.32741 14.7978 8.96844 14.7978 10.9935C14.7978 13.0186 13.1415 14.6597 11.0974 14.6597ZM18.3528 5.12357C18.3528 5.85152 17.7571 6.44163 17.0224 6.44163C16.2876 6.44163 15.692 5.85152 15.692 5.12357C15.692 4.39563 16.2876 3.80552 17.0224 3.80552C17.7571 3.80552 18.3528 4.39563 18.3528 5.12357Z" fill="#B2B2B2"/>
</g>
</svg>
